<svg width="40" height="40" viewBox="0 0 40 40" fill="none" xmlns="http://www.w3.org/2000/svg">
<path d="M19.9999 5C19.9999 5 9.68992 13.9 3.92825 18.72C3.74491 18.8797 3.5972 19.0762 3.4947 19.2968C3.3922 19.5173 3.33719 19.7569 3.33325 20C3.33325 20.442 3.50885 20.8659 3.82141 21.1785C4.13397 21.4911 4.55789 21.6667 4.99992 21.6667H8.33325V33.3333C8.33325 33.7754 8.50885 34.1993 8.82141 34.5118C9.13397 34.8244 9.55789 35 9.99992 35H14.9999C15.4419 35 15.8659 34.8244 16.1784 34.5118C16.491 34.1993 16.6666 33.7754 16.6666 33.3333V26.6667H23.3333V33.3333C23.3333 33.7754 23.5088 34.1993 23.8214 34.5118C24.134 34.8244 24.5579 35 24.9999 35H29.9999C30.4419 35 30.8659 34.8244 31.1784 34.5118C31.491 34.1993 31.6666 33.7754 31.6666 33.3333V21.6667H34.9999C35.4419 21.6667 35.8659 21.4911 36.1784 21.1785C36.491 20.8659 36.6666 20.442 36.6666 20C36.6643 19.7522 36.6056 19.5082 36.495 19.2864C36.3844 19.0646 36.2248 18.871 36.0283 18.72C30.3066 13.9 19.9999 5 19.9999 5Z" fill="#8273F0"/>
</svg>
