<svg width="40" height="43" viewBox="0 0 40 43" fill="none" xmlns="http://www.w3.org/2000/svg">
<path opacity="0.15" d="M20.0002 42.5003C29.5389 42.5003 37.2716 41.8959 37.2716 41.1503C37.2716 40.4047 29.5389 39.8003 20.0002 39.8003C10.4614 39.8003 2.72876 40.4047 2.72876 41.1503C2.72876 41.8959 10.4614 42.5003 20.0002 42.5003Z" fill="#2451F6"/>
<path d="M35.9431 36.6503C35.9431 38.6303 34.3488 40.2503 32.4002 40.2503H7.60023C5.65166 40.2503 4.05737 38.6303 4.05737 36.6503V24.5003C4.05737 15.5903 11.2317 8.30029 20.0002 8.30029C28.7688 8.30029 35.9431 15.5903 35.9431 24.5003V36.6503Z" fill="#DAF1F7"/>
<path d="M20.0002 8.30029C11.2317 8.30029 4.05737 15.5903 4.05737 24.5003V29.0003C4.05737 20.0903 11.2317 12.8003 20.0002 12.8003C28.7688 12.8003 35.9431 20.0903 35.9431 29.0003V24.5003C35.9431 15.5903 28.7688 8.30029 20.0002 8.30029Z" fill="white"/>
<path d="M35.9431 36.6503C35.9431 38.6303 34.3488 40.2503 32.4002 40.2503H7.60023C5.65166 40.2503 4.05737 38.6303 4.05737 36.6503V24.5003C4.05737 15.5903 11.2317 8.30029 20.0002 8.30029C28.7688 8.30029 35.9431 15.5903 35.9431 24.5003V36.6503Z" stroke="#3C3E45" stroke-miterlimit="10" stroke-linecap="round" stroke-linejoin="round"/>
<path d="M25.7572 39.8003C25.7572 40.7903 24.9601 41.6003 23.9858 41.6003H16.0143C15.0401 41.6003 14.2429 40.7903 14.2429 39.8003V32.6003C14.2429 31.6103 15.0401 30.8003 16.0143 30.8003H23.9858C24.9601 30.8003 25.7572 31.6103 25.7572 32.6003V39.8003Z" fill="#C0E2EB"/>
<path d="M14.2429 34.8501H25.7572V36.6501H14.2429V34.8501Z" fill="#B1ADD9"/>
<path d="M39.0429 33.0501L35.9429 34.8501V23.6001L39.0429 25.4001V33.0501Z" fill="#B1ADD9" stroke="#3C3E45" stroke-miterlimit="10" stroke-linecap="round" stroke-linejoin="round"/>
<path d="M0.957275 33.0501L4.05728 34.8501V23.6001L0.957275 25.4001V33.0501Z" fill="#B1ADD9" stroke="#3C3E45" stroke-miterlimit="10" stroke-linecap="round" stroke-linejoin="round"/>
<path d="M20.0002 8.30032C20.1774 7.40032 22.2145 1.10032 29.3002 2.27032" stroke="#3C3E45" stroke-miterlimit="10" stroke-linecap="round" stroke-linejoin="round"/>
<path d="M30.6286 5.6001C31.8515 5.6001 32.8429 4.59274 32.8429 3.3501C32.8429 2.10746 31.8515 1.1001 30.6286 1.1001C29.4057 1.1001 28.4143 2.10746 28.4143 3.3501C28.4143 4.59274 29.4057 5.6001 30.6286 5.6001Z" fill="#5542FF" stroke="#3C3E45" stroke-miterlimit="10" stroke-linecap="round" stroke-linejoin="round"/>
<path d="M25.7572 39.8003C25.7572 40.7903 24.9601 41.6003 23.9858 41.6003H16.0143C15.0401 41.6003 14.2429 40.7903 14.2429 39.8003V32.6003C14.2429 31.6103 15.0401 30.8003 16.0143 30.8003H23.9858C24.9601 30.8003 25.7572 31.6103 25.7572 32.6003V39.8003Z" stroke="#3C3E45" stroke-miterlimit="10" stroke-linecap="round" stroke-linejoin="round"/>
<path d="M25.7572 34.8503H14.2429V32.6003C14.2429 31.6103 15.0401 30.8003 16.0143 30.8003H23.9858C24.9601 30.8003 25.7572 31.6103 25.7572 32.6003V34.8503Z" fill="#5542FF" stroke="#3C3E45" stroke-miterlimit="10" stroke-linecap="round" stroke-linejoin="round"/>
<path d="M28.4145 10.8203C25.9345 9.29029 23.1002 8.30029 20.0002 8.30029C16.9002 8.30029 14.0659 9.20029 11.5859 10.7303V21.8003H28.4145V10.8203Z" stroke="#3C3E45" stroke-miterlimit="10" stroke-linecap="round" stroke-linejoin="round"/>
<path d="M27.5287 27.2002C29.9745 27.2002 31.9572 25.1855 31.9572 22.7002C31.9572 20.2149 29.9745 18.2002 27.5287 18.2002C25.0828 18.2002 23.1001 20.2149 23.1001 22.7002C23.1001 25.1855 25.0828 27.2002 27.5287 27.2002Z" fill="#2FD3FE" stroke="#3C3E45" stroke-miterlimit="10" stroke-linecap="round" stroke-linejoin="round"/>
<path d="M27.5288 24.4999C28.5071 24.4999 29.3002 23.694 29.3002 22.6999C29.3002 21.7058 28.5071 20.8999 27.5288 20.8999C26.5504 20.8999 25.7573 21.7058 25.7573 22.6999C25.7573 23.694 26.5504 24.4999 27.5288 24.4999Z" fill="#6858F9" stroke="#3C3E45" stroke-miterlimit="10" stroke-linecap="round" stroke-linejoin="round"/>
<path d="M12.4715 27.2002C14.9174 27.2002 16.9001 25.1855 16.9001 22.7002C16.9001 20.2149 14.9174 18.2002 12.4715 18.2002C10.0257 18.2002 8.04297 20.2149 8.04297 22.7002C8.04297 25.1855 10.0257 27.2002 12.4715 27.2002Z" fill="#2FD3FE" stroke="#3C3E45" stroke-miterlimit="10" stroke-linecap="round" stroke-linejoin="round"/>
<path d="M12.4716 24.4999C13.45 24.4999 14.2431 23.694 14.2431 22.6999C14.2431 21.7058 13.45 20.8999 12.4716 20.8999C11.4933 20.8999 10.7002 21.7058 10.7002 22.6999C10.7002 23.694 11.4933 24.4999 12.4716 24.4999Z" fill="#6858F9" stroke="#3C3E45" stroke-miterlimit="10" stroke-linecap="round" stroke-linejoin="round"/>
</svg>
