<svg width="119" height="127" viewBox="0 0 119 127" fill="none" xmlns="http://www.w3.org/2000/svg">
<g clip-path="url(#clip0_204_80)" filter="url(#filter0_d_204_80)">
<path d="M69.9092 45.4751V37.9751C69.9092 32.8057 65.2363 28.6001 59.4925 28.6001C53.7488 28.6001 49.0758 32.8057 49.0758 37.9751V45.4751C46.7779 45.4751 44.9092 47.1551 44.9092 49.2251V62.3501C44.9092 64.4182 46.7779 66.1001 49.0758 66.1001H69.9092C72.2071 66.1001 74.0758 64.4182 74.0758 62.3501V49.2251C74.0758 47.1551 72.2071 45.4751 69.9092 45.4751ZM59.4925 58.6001C58.6634 58.5998 57.8684 58.3032 57.2824 57.7754C56.6963 57.2476 56.3672 56.5319 56.3675 55.7857C56.3678 55.0396 56.6974 54.324 57.2838 53.7966C57.8703 53.2691 58.6655 52.973 59.4946 52.9732C60.3237 52.9735 61.1187 53.2701 61.7047 53.7979C62.2908 54.3257 62.6199 55.0414 62.6196 55.7876C62.6193 56.5338 62.2897 57.2493 61.7033 57.7767C61.1168 58.3042 60.3216 58.6003 59.4925 58.6001ZM65.7425 45.4751H53.2425V37.9751C53.2425 34.8738 56.0467 32.3501 59.4925 32.3501C62.9383 32.3501 65.7425 34.8738 65.7425 37.9751V45.4751Z" fill="#9DA0A6"/>
</g>
<defs>
<filter id="filter0_d_204_80" x="-10" y="-3" width="138" height="133" filterUnits="userSpaceOnUse" color-interpolation-filters="sRGB">
<feFlood flood-opacity="0" result="BackgroundImageFix"/>
<feColorMatrix in="SourceAlpha" type="matrix" values="0 0 0 0 0 0 0 0 0 0 0 0 0 0 0 0 0 0 127 0" result="hardAlpha"/>
<feMorphology radius="4" operator="dilate" in="SourceAlpha" result="effect1_dropShadow_204_80"/>
<feOffset dy="16"/>
<feGaussianBlur stdDeviation="20"/>
<feComposite in2="hardAlpha" operator="out"/>
<feColorMatrix type="matrix" values="0 0 0 0 0.6 0 0 0 0 0.74902 0 0 0 0 0.901961 0 0 0 0.25 0"/>
<feBlend mode="normal" in2="BackgroundImageFix" result="effect1_dropShadow_204_80"/>
<feBlend mode="normal" in="SourceGraphic" in2="effect1_dropShadow_204_80" result="shape"/>
</filter>
<clipPath id="clip0_204_80">
<rect width="50" height="45" fill="white" transform="translate(34 25)"/>
</clipPath>
</defs>
</svg>
