<svg xmlns="http://www.w3.org/2000/svg" xmlns:xlink="http://www.w3.org/1999/xlink" width="500" zoomAndPan="magnify" viewBox="0 0 375 374.999991" height="500" preserveAspectRatio="xMidYMid meet" version="1.0"><path fill="#b3b8d0" d="M 278.164062 164.378906 L 242.769531 170.785156 L 195.617188 102.503906 C 191.917969 97.152344 183.070312 97.152344 179.371094 102.503906 L 132.21875 170.785156 L 96.824219 164.378906 C 93.453125 163.851562 89.953125 164.976562 87.710938 167.484375 C 85.398438 170.058594 84.605469 173.558594 85.53125 176.863281 L 111.945312 269.316406 C 113.132812 273.609375 117.03125 276.515625 121.457031 276.515625 L 253.53125 276.515625 C 257.957031 276.515625 261.855469 273.609375 263.042969 269.316406 L 289.457031 176.863281 C 290.382812 173.558594 289.589844 170.058594 287.277344 167.484375 C 284.96875 164.976562 281.535156 163.785156 278.164062 164.378906 Z M 278.164062 164.378906 " fill-opacity="1" fill-rule="nonzero"/></svg>