<svg width="14" height="13" viewBox="0 0 14 13" fill="none" xmlns="http://www.w3.org/2000/svg">
<path d="M0.321313 5.95897L2.97394 8.32821L2.2371 11.6308C2.16342 12.0615 2.31079 12.4923 2.67921 12.7077C2.82658 12.8513 3.04763 12.9231 3.26868 12.9231C3.41605 12.9231 3.56342 12.9231 3.71079 12.8513C3.71079 12.8513 3.78447 12.8513 3.78447 12.7795L6.80552 11.1282L9.82658 12.7795C9.82658 12.7795 9.90026 12.7795 9.90026 12.8513C10.2687 12.9949 10.7108 12.9949 11.0055 12.7795C11.3739 12.5641 11.5213 12.1333 11.4476 11.7026L10.7108 8.4C11.0055 8.18462 11.4476 7.75385 11.8897 7.32308L13.2897 6.10256L13.3634 6.03077C13.6582 5.74359 13.7318 5.31282 13.5845 4.95385C13.4371 4.59487 13.1424 4.30769 12.7003 4.2359H12.6266L9.16342 3.87692L7.76342 0.789744C7.76342 0.789744 7.76342 0.717949 7.68973 0.717949C7.61605 0.215385 7.24763 0 6.87921 0C6.51079 0 6.14237 0.215385 5.92131 0.574359C5.92131 0.574359 5.92131 0.646154 5.84763 0.646154L4.44763 3.73333L0.984471 4.09231H0.910787C0.542366 4.1641 0.173945 4.45128 0.0265764 4.81026C-0.0471078 5.24103 0.0265763 5.6718 0.321313 5.95897Z" fill="url(#paint0_linear_189_49)"/>
<defs>
<linearGradient id="paint0_linear_189_49" x1="6.82908" y1="0" x2="6.82908" y2="12.9514" gradientUnits="userSpaceOnUse">
<stop stop-color="#E4C70B"/>
<stop offset="1" stop-color="#E2CB36"/>
</linearGradient>
</defs>
</svg>
